{"title":"Cellmates 2011 BRRip XViD juggs","uid":8174535,"size":746256801,"categoryP":"video","categoryS":"movies","magnet":"?xt=urn:btih:ab36f9e52eea84e374ee2b597243e16df1ad2865&amp;dn=Cellmates+2011+BRRip+XViD+juggs&amp;tr=udp%3A%2F%2Ftracker.openbittorrent.com%3A80&amp;tr=udp%3A%2F%2Fopen.demonii.com%3A1337&amp;tr=udp%3A%2F%2Ftracker.coppersurfer.tk%3A6969&amp;tr=udp%3A%2F%2Fexodus.desync.com%3A6969","seeders":1,"leechers":0,"uploader":"juggs99","files":3,"time":1361493408,"description":"Source : BRMP\n\nFormat : AVI\nFormat/Info : Audio Video Interleave\nFile size : 702 MiB\nDuration : 1h 25mn\nOverall bit rate : 1 146 Kbps\nWriting library : VirtualDub build 32842/release\n\nVideo\nID : 0\nFormat : MPEG-4 Visual\nFormat profile : Advanced Simple@L5\nFormat settings, BVOP : 4\nFormat settings, QPel : No\nFormat settings, GMC : No warppoints\nFormat settings, Matrix : Default (H.263)\nMuxing mode : Packed bitstream\nCodec ID : XVID\nCodec ID/Hint : XviD\nDuration : 1h 25mn\nBit rate : 1 008 Kbps\nWidth : 640 pixels\nHeight : 272 pixels\nDisplay aspect ratio : 2.35:1\nFrame rate : 23.976 fps\nColor space : YUV\nChroma subsampling : 4:2:0\nBit depth : 8 bits\nScan type : Progressive\nCompression mode : Lossy\nBits/(Pixel*Frame) : 0.242\nStream size : 617 MiB (88%)\nWriting library : XviD 64\n\nAudio\nID : 1\nFormat : MPEG Audio\nFormat version : Version 1\nFormat profile : Layer 3\nCodec ID : 55\nCodec ID/Hint : MP3\nDuration : 1h 25mn\nBit rate mode : Constant\nBit rate : 128 Kbps\nChannel(s) : 2 channels\nSampling rate : 44.1 KHz\nCompression mode : Lossy\nStream size : 78.4 MiB (11%)\nAlignment : Split accross interleaves\nInterleave, duration : 42 ms (1.00 video frame)\nInterleave, preload duration : 500 ms\nWriting library : LAME3.99r\nEncoding settings : -m s -V 4 -q 3 -lowpass 17 -b 128\n\n\nPlot\nLeroy Lowe, grand dragon of the Texas Ku Klux Klan confronts everything he's been taught to hate when he's sentenced to three years of hard labor on a prison work farm, where Warden Merville, dead set on rehabilitating Leroy, chooses Emilio, a Hispanic field worker imprisoned for fighting for labor rights, to be his cell-mate\n\n &lt;a href=&quot;\nhttp://www.shotpix.com/images/95262677606317020392.png&quot; rel=&quot;nofollow&quot; target=&quot;_NEW&quot;&gt;\nhttp://www.shotpix.com/images/95262677606317020392.png&lt;/a&gt; &lt;a href=&quot;\nhttp://www.shotpix.com/images/42351082220371003282.png&quot; rel=&quot;nofollow&quot; target=&quot;_NEW&quot;&gt;\nhttp://www.shotpix.com/images/42351082220371003282.png&lt;/a&gt; &lt;a href=&quot;\nhttp://www.shotpix.com/images/95415998076634724992.png&quot; rel=&quot;nofollow&quot; target=&quot;_NEW&quot;&gt;\nhttp://www.shotpix.com/images/95415998076634724992.png&lt;/a&gt;","torrent":{"xt":"urn:btih:ab36f9e52eea84e374ee2b597243e16df1ad2865","amp;dn":"Cellmates+2011+BRRip+XViD+juggs","amp;tr":["udp%3A%2F%2Ftracker.openbittorrent.com%3A80","udp%3A%2F%2Fopen.demonii.com%3A1337","udp%3A%2F%2Ftracker.coppersurfer.tk%3A6969","udp%3A%2F%2Fexodus.desync.com%3A6969"],"infoHash":"ab36f9e52eea84e374ee2b597243e16df1ad2865","infoHashBuffer":{"type":"Buffer","data":[171,54,249,229,46,234,132,227,116,238,43,89,114,67,225,109,241,173,40,101]},"announce":[],"urlList":[]}}